<svg xmlns="http://www.w3.org/2000/svg" width="512" height="512" viewBox="0 0 512 512">
  <rect width="512" height="512" rx="112" fill="#0f2a47"/>
  <path d="M 456.00 256.00 L 453.02 271.80 448.84 287.12 443.52 301.89 437.10 316.01 429.67 329.42 421.28 342.05 412.03 353.82 401.98 364.69 391.22 374.60 379.84 383.51 367.93 391.40 355.57 398.22 342.85 403.97 329.88 408.62 316.72 412.19 303.48 414.66 290.25 416.05 277.10 416.37 264.12 415.65 251.39 413.91 238.98 411.20 226.98 407.55 215.44 403.00 204.44 397.61 194.02 391.43 184.25 384.52 175.17 376.94 166.82 368.75 159.24 360.03 152.46 350.84 146.51 341.25 141.41 331.34 137.17 321.17 133.79 310.81 131.28 300.34 129.63 289.83 128.84 279.35 128.89 268.96 129.76 258.73 131.42 248.72 133.85 238.98 137.01 229.59 140.87 220.59 145.38 212.02 150.50 203.94 156.18 196.38 162.38 189.39 169.03 182.98 176.09 177.20 183.50 172.06 191.21 167.59 199.16 163.79 207.29 160.67 215.54 158.24 223.87 156.50 232.20 155.44 240.50 155.06 248.70 155.34 256.76 156.26 264.63 157.80 272.25 159.95 279.60 162.66 286.62 165.91 293.28 169.67 299.54 173.90 305.38 178.56 310.76 183.61 315.66 189.02 320.06 194.72 323.95 200.70 327.30 206.88 330.12 213.25 332.39 219.74 334.12 226.31 335.30 232.92 335.95 239.53 336.06 246.09 335.65 252.56 334.73 258.90 333.33 265.08 331.47 271.05 329.15 276.78 326.42 282.25 323.30 287.42 319.82 292.27 316.00 296.77 311.89 300.90 307.51 304.65 302.90 307.99 298.10 310.92 293.14 313.43 288.05 315.51 282.87 317.16 277.64 318.37 272.39 319.15 267.16 319.50 261.98 319.44 256.88 318.97 251.89 318.10 247.05 316.85 242.38 315.24 237.90 313.28 233.65 311.00 229.64 308.42 225.89 305.55 222.42 302.44 219.26 299.09 216.40 295.55 213.87 291.84 211.66 287.97 209.80 284.00 208.27 279.93 207.09 275.81 206.26 271.65 205.76 267.49 205.60 263.35 205.77 259.26 206.26 255.24 207.06 251.33 208.16 247.53 209.54 243.88 211.19 240.39 213.09 237.08 215.22 233.98 217.57 231.08 220.11 228.42 222.82 225.99 225.68 223.82 228.68 221.91 231.78 220.25 234.96 218.87 238.21 217.76 241.49 216.93 244.79 216.36 248.09 216.07 251.36 216.04 254.59 216.27 257.75 216.75 260.82 217.47 263.79 218.42 266.64 219.60 269.36 220.98 271.93 222.56 274.33 224.31 276.56 226.23 278.61 228.30 280.46 230.50 282.11 232.81 283.55 235.21 284.78 237.70 285.80 240.24 286.60 242.83 287.18 245.44 287.55 248.06 287.71 250.67 287.66 253.26 287.41 255.80 286.95 258.28 286.31 260.69 285.49 263.02 284.50 265.24 283.34 267.36 282.04 269.35 280.60 271.20 279.03 272.92 277.35 274.49 275.57 275.90 273.71 277.15 271.78 278.23 269.79 279.15 267.75 279.89 265.69 280.46 263.61 280.87 261.54 281.10 259.47 281.16 257.43 281.06 255.43 280.80 253.48 280.39 251.59 279.83 249.78 279.12 248.04 278.29 246.40 277.33 244.86 276.25 243.43 275.07 242.11 273.79 240.91 272.43 239.84 271.00 238.89 269.50 238.08 267.94 237.41 266.35 236.86 264.73 236.46 263.09 236.19 261.44 236.06 259.79 236.05 258.16 236.18 256.55 236.43 254.98 236.80 253.45 237.29 251.97 237.89 250.55 238.59 249.20 239.38 247.93 240.27 246.74 241.23 245.63" fill="none" stroke="#4a90e2" stroke-width="16" stroke-linecap="round" stroke-linejoin="round"/>
  <circle cx="256" cy="256" r="20" fill="#8fd0ff"/>
</svg>
